# xmcd
#
# Track frame offsets: 
#        150
#        17478
#        35010
#        52905
#        64083
#        79043
#        93730
#        102833
#        114364
#        151528
#        182370
#        219778
#        244093
#
# Disc length: 3801 seconds
#
# Revision: 1
# Processed by: cddbd v1.4PL0 Copyright (c) Steve Scherf et al.
# Submitted via: ExactAudioCopy v0.95a3
#
DISCID=920ed70d
DTITLE=Muti Riccardo - Philharmonia Orchestra - Verdi Ouvertures CD 2
DYEAR=2002
DGENRE=Classical
TTITLE0=La Traviata
TTITLE1=Atto II - Preludio
TTITLE2=Un ballo in maschera - Preludio
TTITLE3=Atto II - Preludio
TTITLE4=Attila
TTITLE5=Ernani
TTITLE6=Atto II - Preludio
TTITLE7=Rigoletto
TTITLE8=I Vespri Siciliani
TTITLE9=Le Quatro Stagioni I
TTITLE10=Le Quatro Stagioni II
TTITLE11=Le Quatro Stagioni III
TTITLE12=Le Quatro Stagioni IV
EXTD=
EXTT0=
EXTT1=
EXTT2=
EXTT3=
EXTT4=
EXTT5=
EXTT6=
EXTT7=
EXTT8=
EXTT9=
EXTT10=
EXTT11=
EXTT12=
PLAYORDER=
